<svg id="Laag_1" data-name="Laag 1" xmlns="http://www.w3.org/2000/svg" viewBox="0 0 512 512"><defs><style>.cls-1{fill:#ff970d;}.cls-1,.cls-2{fill-rule:evenodd;}</style></defs><path class="cls-1" d="M256,128.24a126,126,0,0,1,126,126H130A126,126,0,0,1,256,128.24Z"/><path class="cls-2" d="M398.16,219.68a8.63,8.63,0,0,0,8.21,6,8.52,8.52,0,0,0,2.67-.43l44.88-14.58a8.64,8.64,0,1,0-5.34-16.43l-44.87,14.58A8.64,8.64,0,0,0,398.16,219.68Z"/><path class="cls-2" d="M306.91,118.33a8.56,8.56,0,0,0,3.51.75,8.67,8.67,0,0,0,7.9-5.12l19.19-43.11a8.64,8.64,0,1,0-15.79-7l-19.19,43.11A8.63,8.63,0,0,0,306.91,118.33Z"/><path class="cls-2" d="M369.69,162.19a8.62,8.62,0,0,0,5.79-2.22l35.09-31.6A8.64,8.64,0,0,0,399,115.53l-35.1,31.6a8.64,8.64,0,0,0,5.78,15.06Z"/><path class="cls-2" d="M58.08,210.64,103,225.22a8.64,8.64,0,0,0,5.34-16.43L63.42,194.21a8.64,8.64,0,1,0-5.34,16.43Z"/><path class="cls-2" d="M101.43,128.37l35.1,31.6a8.64,8.64,0,0,0,11.56-12.84L113,115.53a8.64,8.64,0,1,0-11.56,12.84Z"/><path class="cls-2" d="M193.69,114a8.64,8.64,0,0,0,15.78-7L190.28,63.82a8.64,8.64,0,0,0-15.79,7Z"/><path class="cls-2" d="M247.44,94a8.64,8.64,0,1,0,17.27-.06l-.14-47.18a8.64,8.64,0,1,0-17.28.05Z"/><path class="cls-1" d="M256,379.17a126,126,0,0,1-126-126H382A126,126,0,0,1,256,379.17Z"/><path class="cls-2" d="M113.84,287.73a8.63,8.63,0,0,0-8.21-6,8.85,8.85,0,0,0-2.67.42L58.08,296.76a8.64,8.64,0,0,0,5.34,16.44l44.88-14.59A8.62,8.62,0,0,0,113.84,287.73Z"/><path class="cls-2" d="M205.1,389.07a8.63,8.63,0,0,0-11.41,4.38l-19.2,43.11a8.64,8.64,0,1,0,15.79,7l19.19-43.11A8.65,8.65,0,0,0,205.1,389.07Z"/><path class="cls-2" d="M142.31,345.21a8.64,8.64,0,0,0-5.78,2.22L101.43,379A8.64,8.64,0,1,0,113,391.87l35.1-31.6a8.64,8.64,0,0,0-5.78-15.06Z"/><path class="cls-2" d="M453.92,296.76,409,282.18a8.51,8.51,0,0,0-2.67-.42,8.64,8.64,0,0,0-2.67,16.85l44.88,14.59a8.64,8.64,0,0,0,5.34-16.44Z"/><path class="cls-2" d="M410.57,379l-35.1-31.6a8.64,8.64,0,1,0-11.56,12.84l35.1,31.6A8.64,8.64,0,1,0,410.57,379Z"/><path class="cls-2" d="M318.31,393.45a8.64,8.64,0,1,0-15.78,7l19.19,43.11a8.64,8.64,0,0,0,15.79-7Z"/><path class="cls-2" d="M264.57,413.41a8.64,8.64,0,1,0-17.28,0l.15,47.19a8.64,8.64,0,1,0,17.27-.06Z"/></svg>