<svg id="Laag_1" data-name="Laag 1" xmlns="http://www.w3.org/2000/svg" viewBox="0 0 512 512"><defs><style>.cls-1{fill:#1046b2;}.cls-1,.cls-2,.cls-3,.cls-4{fill-rule:evenodd;}.cls-2{fill:#ff970d;}.cls-4{fill:#820099;stroke:#000;stroke-miterlimit:10;stroke-width:6px;}</style></defs><path class="cls-1" d="M.25,362.87s13.09,109.87,92,109.87H256.25V362.88Z"/><path class="cls-1" d="M511.75,362.87S498.66,472.74,419.8,472.74h-164V362.88Z"/><path class="cls-2" d="M256,217.07A145.81,145.81,0,0,1,401.8,362.88H110.2A145.81,145.81,0,0,1,256,217.07Z"/><path class="cls-3" d="M502,352.87H411.48A154.1,154.1,0,0,0,379.62,268a156.94,156.94,0,0,0-81.28-55.14,10,10,0,1,0-5.42,19.25c55,15.5,94.32,64.32,98.51,120.72H120.57c4.19-56.4,43.52-105.22,98.52-120.72a10,10,0,0,0-5.43-19.25A156.88,156.88,0,0,0,132.39,268a154,154,0,0,0-31.87,84.83H10a10,10,0,0,0,0,20H502a10,10,0,0,0,0-20Z"/><path class="cls-3" d="M226,412.51a10,10,0,0,0-10-10H44a10,10,0,0,0,0,20H216A10,10,0,0,0,226,412.51Z"/><path class="cls-3" d="M468,402.51H296a10,10,0,0,0,0,20H468a10,10,0,0,0,0-20Z"/><path class="cls-3" d="M434,452.15H78.05a10,10,0,1,0,0,20H434a10,10,0,0,0,0-20Z"/><path class="cls-3" d="M420.54,322.91a10,10,0,0,0,12.6,6.42l51.95-16.88a10,10,0,0,0-6.18-19l-52,16.88A10,10,0,0,0,420.54,322.91Z"/><path class="cls-3" d="M314.92,205.61a10,10,0,0,0,13.21-5.07l22.21-49.89a10,10,0,1,0-18.27-8.14l-22.21,49.9A10,10,0,0,0,314.92,205.61Z"/><path class="cls-3" d="M387.6,256.38a10,10,0,0,0,6.69-2.57l40.62-36.58a10,10,0,0,0-13.38-14.86L380.91,239a10,10,0,0,0,6.69,17.43Z"/><path class="cls-3" d="M26.91,312.45l52,16.88a9.82,9.82,0,0,0,3.09.49A10,10,0,0,0,85,310.31L33.09,293.43a10,10,0,0,0-6.18,19Z"/><path class="cls-3" d="M77.09,217.23l40.62,36.58A10,10,0,1,0,131.1,239L90.47,202.37a10,10,0,0,0-13.38,14.86Z"/><path class="cls-3" d="M183.88,200.54a10,10,0,1,0,18.26-8.13l-22.21-49.9a10,10,0,1,0-18.27,8.14Z"/><path class="cls-3" d="M246,217.07a10,10,0,1,0,10-10A10,10,0,0,0,246,217.07Z"/><path class="cls-3" d="M266,412.51a10,10,0,1,0-10,10A10,10,0,0,0,266,412.51Z"/><path class="cls-4" d="M220.89,117.78l15.16,16.1,17.76,18.84a3,3,0,0,0,4.38,0L276,133.88l15.17-16.1a3,3,0,0,0-2.19-5.07H266.78V41.15a3,3,0,0,0-3-3H248.23a3,3,0,0,0-3,3v71.56H223.08A3,3,0,0,0,220.89,117.78Z"/></svg>